<svg xmlns="http://www.w3.org/2000/svg" width="521" height="521" viewBox="0 0 521 521"><g fill="#050100" fill-rule="evenodd" opacity=".04"><path d="M236.876 116.082l16.516 2.501c3.704.561 6.305 3.88 5.936 7.534-2.962 29.274-5.12 56.109-6.473 80.499-1.453 26.193-2.102 40.525-1.95 42.991l-.313.311c-8.388 1.007-25.45 3.092-51.181 6.255-23.546 2.896-47.79 6.253-72.74 10.075-3.838.587-7.459-1.965-8.071-5.725l-2.51-15.359c-.644-3.944 2.239-7.589 6.3-7.964 19.212-1.774 39.012-3.912 59.395-6.414 23.044-2.828 36.49-4.287 40.337-4.377l.16-.168c-.009-1.781.727-13.34 2.209-34.673 1.355-19.492 2.775-42.503 4.263-69.034.23-4.08 4.003-7.075 8.122-6.452m87.825 70.615l14.2 13.743a6.81 6.81 0 0 1-.001 9.835 5736.9 5736.9 0 0 0-18.913 18.388c-13.578 13.241-31.438 30.83-53.579 52.76-8.215 8.137-17.84 17.775-28.876 28.913a14687.973 14687.973 0 0 1-28.389 28.573c-2.736 2.747-7.246 2.795-10.034.099l-14.302-13.84c-2.786-2.697-2.81-7.085-.038-9.794 9.003-8.803 19.063-18.652 30.181-29.55a9495.677 9495.677 0 0 0 35.72-35.174c19.358-19.173 35.109-34.844 47.257-47.016a4738.544 4738.544 0 0 0 16.744-16.836c2.73-2.767 7.234-2.807 10.03-.1M286.9 409.918l-16.82-2.478c-3.771-.556-6.42-3.846-6.045-7.468 3.017-29.014 5.215-55.611 6.593-79.785 1.48-25.961 2.14-40.166 1.986-42.61l.318-.309c8.542-.998 25.919-3.064 52.123-6.2 23.979-2.87 48.67-6.196 74.077-9.985 3.91-.582 7.597 1.948 8.22 5.676l2.556 15.22c.657 3.912-2.28 7.523-6.416 7.895-19.565 1.758-39.729 3.877-60.487 6.357-23.468 2.803-37.162 4.25-41.08 4.338l-.161.166c.008 1.766-.742 13.222-2.25 34.367-1.38 19.319-2.827 42.126-4.342 68.423-.234 4.042-4.076 7.012-8.272 6.393M54.669 131.045l-10.207-7.135c-2.58-1.802-3.23-5.514-1.486-8.232A270.693 270.693 0 0 1 62.48 88.996c2.046-2.465 5.571-2.686 7.83-.444l8.938 8.867c2.16 2.143 2.356 5.748.402 8.107a246.157 246.157 0 0 0-17.529 23.979c-1.667 2.596-4.986 3.264-7.452 1.54"/><path d="M262.538 520.992C117.968 522.104 0 404.82 0 260.5c0-43.933 11.093-87.168 32.126-125.416 1.507-2.741 5.004-3.67 7.712-2.1l10.871 6.295c2.624 1.518 3.594 4.858 2.136 7.517-19.018 34.679-29.047 73.872-29.047 113.704 0 133.623 111.296 241.74 246.057 236.521 122.848-4.76 222.408-104.32 227.166-227.167 5.22-134.76-102.9-246.056-236.522-246.056-40.384 0-80.052 10.292-115.086 29.811-2.648 1.476-5.994.525-7.53-2.088l-6.366-10.826c-1.585-2.697-.681-6.2 2.05-7.728C172.2 11.382 215.963 0 260.5 0c144.317 0 261.6 117.96 260.493 262.528-1.083 141.69-116.763 257.374-258.454 258.464"/><path d="M122.756 61.223l-7.818-9.208c-1.642-1.935-1.072-4.626 1.267-5.966l.551-.316c2.343-1.335 5.536-.794 7.08 1.197l7.349 9.479c1.496 1.931.875 4.51-1.394 5.807l-.083.048c-2.27 1.297-5.359.837-6.952-1.04M95.842 85.499l-7.497-7.801a4.828 4.828 0 0 1 .247-6.926 227.155 227.155 0 0 1 7.638-6.64c2.098-1.743 5.226-1.44 6.933.684l6.77 8.433c1.634 2.036 1.368 5.015-.64 6.687a208.37 208.37 0 0 0-6.702 5.826c-1.935 1.757-4.94 1.622-6.75-.263"/></g></svg>